<?xml version="1.0" standalone="no"?>
<!DOCTYPE svg PUBLIC "-//W3C//DTD SVG 20010904//EN"
 "http://www.w3.org/TR/2001/REC-SVG-20010904/DTD/svg10.dtd">
<svg version="1.0" xmlns="http://www.w3.org/2000/svg"
 width="364.000000pt" height="364.000000pt" viewBox="0 0 364.000000 364.000000"
 preserveAspectRatio="xMidYMid meet">
<metadata>
Created by potrace 1.14, written by Peter Selinger 2001-2017
</metadata>
<g transform="translate(0.000000,364.000000) scale(0.100000,-0.100000)"
fill="#000000" stroke="none">
<path d="M0 1820 l0 -1820 1820 0 1820 0 0 1820 0 1820 -1820 0 -1820 0 0
-1820z m1050 1340 l0 -100 95 0 95 0 0 -95 0 -95 95 0 95 0 0 -95 0 -95 100 0
100 0 0 -95 0 -95 95 0 95 0 0 -95 0 -95 95 0 95 0 0 -100 0 -100 95 0 95 0 0
-95 0 -95 95 0 95 0 0 -95 0 -95 95 0 95 0 0 -95 0 -95 100 0 100 0 0 -95 0
-95 -385 0 -385 0 0 -195 0 -195 95 0 95 0 0 -190 0 -190 95 0 95 0 0 -190 0
-190 -190 0 -190 0 0 190 0 190 -95 0 -95 0 0 195 0 195 -95 0 -95 0 0 95 0
95 -100 0 -100 0 0 -95 0 -95 -95 0 -95 0 0 -95 0 -95 -95 0 -95 0 0 -100 0
-100 -95 0 -95 0 0 1345 0 1345 95 0 95 0 0 -100z"/>
</g>
</svg>
